<svg width="43" height="44" viewBox="0 0 43 44" fill="none" xmlns="http://www.w3.org/2000/svg">
<circle cx="21.5023" cy="21.901" r="21.252" fill="#D9D9D9"/>
<circle cx="13.9048" cy="19.0555" r="2.11676" fill="#AEB0B2"/>
<circle cx="29.0999" cy="19.0555" r="2.11676" fill="#AEB0B2"/>
<path d="M21.949 23.707C18.128 23.707 14.9952 26.7147 14.7985 30.4821C14.7961 30.5305 14.8036 30.5789 14.8204 30.6244C14.8373 30.6699 14.8633 30.7114 14.8967 30.7465C14.9302 30.7816 14.9704 30.8096 15.015 30.8287C15.0596 30.8477 15.1076 30.8575 15.1561 30.8575H17.3057C17.4934 30.8575 17.6543 30.7145 17.6677 30.5268C17.8375 28.3146 19.6921 26.5672 21.949 26.5672C24.2058 26.5672 26.065 28.3146 26.2303 30.5268C26.2437 30.7145 26.4046 30.8575 26.5923 30.8575H28.7419C28.7904 30.8575 28.8384 30.8477 28.883 30.8287C28.9276 30.8096 28.9678 30.7816 29.0012 30.7465C29.0347 30.7114 29.0606 30.6699 29.0775 30.6244C29.0944 30.5789 29.1019 30.5305 29.0994 30.4821C28.9028 26.7147 25.77 23.707 21.949 23.707Z" fill="#AEB0B2"/>
</svg>
