<svg width="21" height="22" viewBox="0 0 21 22" fill="none" xmlns="http://www.w3.org/2000/svg">
<path d="M19.3419 17.5771C18.8569 16.4282 18.1529 15.3845 17.2694 14.5043C16.3885 13.6215 15.345 12.9177 14.1965 12.4317C14.1862 12.4266 14.1759 12.424 14.1657 12.4189C15.7677 11.2617 16.8091 9.37685 16.8091 7.25028C16.8091 3.72742 13.9548 0.873138 10.4319 0.873138C6.90908 0.873138 4.0548 3.72742 4.0548 7.25028C4.0548 9.37685 5.09623 11.2617 6.69823 12.4214C6.68794 12.4266 6.67766 12.4291 6.66737 12.4343C5.51537 12.9203 4.48166 13.6171 3.59451 14.5069C2.71177 15.3877 2.00795 16.4312 1.52194 17.5797C1.04448 18.7041 0.786981 19.9095 0.76337 21.1309C0.762684 21.1583 0.767497 21.1856 0.777528 21.2112C0.787558 21.2367 0.802602 21.26 0.821773 21.2797C0.840944 21.2993 0.863855 21.3149 0.889154 21.3256C0.914454 21.3362 0.941631 21.3417 0.969084 21.3417H2.51194C2.62508 21.3417 2.71508 21.2517 2.71766 21.1411C2.76908 19.156 3.56623 17.2969 4.97537 15.8877C6.43337 14.4297 8.36966 13.6274 10.4319 13.6274C12.4942 13.6274 14.4305 14.4297 15.8885 15.8877C17.2977 17.2969 18.0948 19.156 18.1462 21.1411C18.1488 21.2543 18.2388 21.3417 18.3519 21.3417H19.8948C19.9223 21.3417 19.9494 21.3362 19.9747 21.3256C20 21.3149 20.0229 21.2993 20.0421 21.2797C20.0613 21.26 20.0763 21.2367 20.0864 21.2112C20.0964 21.1856 20.1012 21.1583 20.1005 21.1309C20.0748 19.9017 19.8202 18.706 19.3419 17.5771ZM10.4319 11.6731C9.25166 11.6731 8.1408 11.2129 7.30508 10.3771C6.46937 9.54142 6.00908 8.43057 6.00908 7.25028C6.00908 6.07 6.46937 4.95914 7.30508 4.12342C8.1408 3.28771 9.25166 2.82742 10.4319 2.82742C11.6122 2.82742 12.7231 3.28771 13.5588 4.12342C14.3945 4.95914 14.8548 6.07 14.8548 7.25028C14.8548 8.43057 14.3945 9.54142 13.5588 10.3771C12.7231 11.2129 11.6122 11.6731 10.4319 11.6731Z" fill="#141313"/>
</svg>
