<svg width="21" height="22" viewBox="0 0 21 22" fill="none" xmlns="http://www.w3.org/2000/svg">
<path d="M19.9405 2.67311H15.6205V1.0274C15.6205 0.914257 15.5279 0.821686 15.4148 0.821686H13.9748C13.8616 0.821686 13.769 0.914257 13.769 1.0274V2.67311H7.18618V1.0274C7.18618 0.914257 7.09361 0.821686 6.98047 0.821686H5.54047C5.42732 0.821686 5.33475 0.914257 5.33475 1.0274V2.67311H1.01475C0.559609 2.67311 0.191895 3.04083 0.191895 3.49597V20.5703C0.191895 21.0254 0.559609 21.3931 1.01475 21.3931H19.9405C20.3956 21.3931 20.7633 21.0254 20.7633 20.5703V3.49597C20.7633 3.04083 20.3956 2.67311 19.9405 2.67311ZM18.9119 19.5417H2.04332V9.77026H18.9119V19.5417ZM2.04332 8.02169V4.52454H5.33475V5.75883C5.33475 5.87197 5.42732 5.96454 5.54047 5.96454H6.98047C7.09361 5.96454 7.18618 5.87197 7.18618 5.75883V4.52454H13.769V5.75883C13.769 5.87197 13.8616 5.96454 13.9748 5.96454H15.4148C15.5279 5.96454 15.6205 5.87197 15.6205 5.75883V4.52454H18.9119V8.02169H2.04332Z" fill="#9B9B9B"/>
</svg>
