<svg width="21" height="21" viewBox="0 0 21 21" fill="none" xmlns="http://www.w3.org/2000/svg">
<g clip-path="url(#clip0_17_742)">
<path d="M11.6707 8.73874C11.155 8.73874 10.7555 9.13829 10.7555 9.6316C10.7555 10.1249 11.155 10.5245 11.6707 10.5245C12.1417 10.5245 12.5412 10.1249 12.5412 9.6316C12.5412 9.13829 12.1417 8.73874 11.6707 8.73874ZM5.42067 8.73874C4.90505 8.73874 4.50549 9.13829 4.50549 9.6316C4.50549 10.1249 4.90505 10.5245 5.42067 10.5245C5.89165 10.5245 6.29121 10.1249 6.29121 9.6316C6.29121 9.13829 5.89165 8.73874 5.42067 8.73874Z" fill="#AEB0B2"/>
<path d="M18.8359 7.04231C17.8032 5.62075 16.314 4.59648 14.6171 4.14052V4.14276C14.2354 3.71865 13.8046 3.32802 13.3225 2.97981C9.66846 0.32356 4.539 1.13383 1.87159 4.78785C-0.277964 7.7566 -0.186446 11.7499 2.00552 14.587L2.02338 17.5468C2.02338 17.6182 2.03454 17.6896 2.05686 17.7566C2.08493 17.846 2.13037 17.9291 2.19057 18.0009C2.25076 18.0728 2.32454 18.1321 2.40768 18.1754C2.49081 18.2188 2.58167 18.2453 2.67507 18.2535C2.76846 18.2616 2.86254 18.2513 2.95195 18.2231L5.77784 17.3325C6.52561 17.5981 7.29793 17.7499 8.06579 17.7923L8.05463 17.8012C10.0435 19.2499 12.6506 19.6852 15.0412 18.895L17.8783 19.8191C17.9497 19.8414 18.0234 19.8548 18.0993 19.8548C18.4944 19.8548 18.8136 19.5356 18.8136 19.1405V16.1495C20.7801 13.4798 20.8314 9.79008 18.8359 7.04231ZM6.09034 15.7477L5.82248 15.6361L3.61266 16.328L3.59034 14.0066L3.41177 13.8057C1.52338 11.5021 1.39838 8.18294 3.16623 5.74767C5.31802 2.79677 9.44302 2.14499 12.385 4.27445C15.3359 6.41954 15.9899 10.5378 13.8582 13.4709C12.0703 15.924 8.86936 16.8303 6.09034 15.7477ZM17.3627 15.3682L17.1841 15.5914L17.2064 17.9128L15.0189 17.1762L14.7511 17.2878C13.5011 17.7521 12.1685 17.7901 10.9341 17.4441L10.9296 17.4419C12.6261 16.9216 14.108 15.865 15.1528 14.4307C16.8582 12.0803 17.135 9.12713 16.1439 6.60927L16.1573 6.6182C16.6707 6.98651 17.1417 7.44633 17.5412 8.00213C19.1618 10.2253 19.0703 13.2521 17.3627 15.3682Z" fill="#AEB0B2"/>
<path d="M8.54567 8.73874C8.03005 8.73874 7.63049 9.13829 7.63049 9.6316C7.63049 10.1249 8.03005 10.5245 8.54567 10.5245C9.01665 10.5245 9.41621 10.1249 9.41621 9.6316C9.41621 9.13829 9.01665 8.73874 8.54567 8.73874Z" fill="#AEB0B2"/>
</g>
<defs>
<clipPath id="clip0_17_742">
<rect width="20" height="20" fill="white" transform="translate(0.309082 0.769989)"/>
</clipPath>
</defs>
</svg>
