<svg width="134" height="139" viewBox="0 0 134 139" fill="none" xmlns="http://www.w3.org/2000/svg">
<path d="M32.3453 103.786C83.6156 94.2746 107.44 79.2989 113.756 72.2513C114.145 71.8177 114.79 71.711 115.27 72.0406C126.444 79.7117 130.578 91.7394 131.247 96.9092C133.791 111.126 124.7 117.423 119.837 118.795L54.553 135.63C47.4447 137.127 32.0311 137.239 27.2423 125.716C22.5378 114.396 28.2806 106.602 31.913 103.967C32.041 103.874 32.1899 103.815 32.3453 103.786Z" fill="white" stroke="#1F1D1D" stroke-width="4.5"/>
<path d="M49.3153 32.1868C63.6066 30.7312 66.8599 14.9319 66.7317 4.52566C66.718 3.40938 68.1912 2.82854 68.8902 3.699C73.595 9.55809 81.4677 19.4386 87.8495 27.6974C97.3895 40.0432 90.2812 50.5185 84.2953 55.3821C65.6776 67.4464 45.7628 68.158 38.014 66.9964C37.9384 66.985 37.8685 66.9819 37.7922 66.9845C34.0758 67.1084 26.7515 64.1936 26.3071 51.4538C25.7459 35.3668 47.4447 32.1868 49.3153 32.1868Z" fill="white" stroke="#1F1D1D" stroke-width="4.5"/>
<path d="M77.7483 55.3821C92.6831 50.4449 93.9559 41.6846 92.3341 36.4574C92.0232 35.4554 92.9769 34.2544 93.9613 34.617C106.725 39.3183 112.633 50.007 114.231 57.0737C117.771 72.7246 105.549 79.9577 104.728 80.4238C104.698 80.441 104.672 80.4568 104.643 80.4761C89.2721 90.7519 48.7424 99.3438 35.8471 102.521C25.8947 104.973 25.9172 117.817 27.2718 124.605C27.3613 125.053 27.1816 125.523 26.7879 125.755C17.5533 131.203 7.95147 115.664 4.23412 107.01C-2.7993 87.4066 11.1553 77.1433 19.0118 74.4621C31.0459 70.5962 59.641 61.368 77.7483 55.3821Z" fill="white" stroke="#1F1D1D" stroke-width="4.5"/>
</svg>
