<svg width="22" height="18" viewBox="0 0 22 18" fill="none" xmlns="http://www.w3.org/2000/svg">
<path d="M9.98881 0.643371C10.0689 0.72336 10.1324 0.818349 10.1758 0.922905C10.2191 1.02746 10.2414 1.13953 10.2414 1.25272C10.2414 1.3659 10.2191 1.47798 10.1758 1.58253C10.1324 1.68709 10.0689 1.78207 9.98881 1.86206L3.70697 8.14283L20.5759 8.14283C20.8043 8.14283 21.0234 8.23357 21.1849 8.39509C21.3464 8.55661 21.4372 8.77567 21.4372 9.0041C21.4372 9.23252 21.3464 9.45158 21.1849 9.6131C21.0234 9.77462 20.8043 9.86536 20.5759 9.86536L3.70697 9.86536L9.98881 16.1461C10.1504 16.3077 10.2412 16.5269 10.2412 16.7555C10.2412 16.984 10.1504 17.2032 9.98881 17.3648C9.8272 17.5264 9.60802 17.6172 9.37947 17.6172C9.15092 17.6172 8.93173 17.5264 8.77012 17.3648L1.01874 9.61344C0.938667 9.53345 0.875141 9.43847 0.831798 9.33391C0.788456 9.22935 0.766147 9.11728 0.766147 9.0041C0.766147 8.89091 0.788456 8.77884 0.831798 8.67428C0.875141 8.56973 0.938667 8.47474 1.01874 8.39475L8.77012 0.643371C8.85011 0.563293 8.9451 0.499767 9.04965 0.456424C9.15421 0.413082 9.26628 0.390775 9.37947 0.390775C9.49265 0.390775 9.60472 0.413082 9.70928 0.456424C9.81384 0.499767 9.90882 0.563293 9.98881 0.643371Z" fill="#141313"/>
</svg>
