<svg width="71" height="38" viewBox="0 0 71 38" fill="none" xmlns="http://www.w3.org/2000/svg">
<path d="M35.2613 2.574C40.39 -0.789076 46.0862 0.822405 48.2932 2.04853C55.6101 -0.317562 59.9984 2.62457 61.278 4.3914C69.5939 4.73566 70.8084 8.96102 70.3763 11.0307C67.5238 12.9979 67.5894 15.4159 67.9787 16.379C71.1754 21.0511 69.3107 23.1617 67.9787 23.633C59.7165 23.0428 57.528 26.3379 57.4666 28.0592C58.696 37.305 53.5899 36.979 50.8832 35.6602C47.8273 33.34 42.9605 34.4105 40.9091 35.2358C34.3447 39.1405 30.44 37.1457 29.3082 35.6602C23.355 30.2134 15.876 26.3407 9.92876 26.8515C3.9815 27.3623 4.93015 22.8015 5.0396 20.7218C5.12717 19.058 2.33548 16.3059 0.928694 15.1378C-0.693743 11.9783 3.32617 11.6611 5.53893 11.8975C9.83873 11.8082 7.87788 8.65739 6.35998 7.09316C5.85552 2.72118 13.7167 2.88933 17.7103 3.5199C24.3524 -0.683927 32.1785 1.13771 35.2613 2.574Z" fill="#915D52"/>
</svg>
