<svg width="63" height="31" viewBox="0 0 63 31" fill="none" xmlns="http://www.w3.org/2000/svg">
<path d="M40.3946 2.66982C45.3885 2.18023 48.1057 4.91381 48.8401 6.3418C54.0384 6.3418 54.7172 10.3941 54.4068 12.4202C59.8593 12.0442 62.2148 16.6507 62.7109 19.0009C63.4003 22.7613 61.3269 25.2982 60.204 26.0966C56.4436 31.1464 50.2286 29.5808 47.5911 28.1668C47.1443 28.6097 47.0427 29.0731 42.3423 29.9687C37.6418 30.8642 34.8097 28.3412 33.9812 26.9677C31.1738 28.4704 28.4734 27.0274 26.8729 26.0966C26.9119 26.7799 25.8187 28.287 21.1334 28.8492C16.4481 29.4114 14.1016 26.5483 13.514 25.0464C9.48501 24.7283 1.20429 22.6608 0.313665 16.9353C-0.576963 11.2099 2.54023 7.97603 4.21015 7.0748C7.64544 1.85826 13.2814 3.35177 15.67 4.75059C19.293 -0.537041 24.3603 1.16023 26.4411 2.66982C31.5329 -2.03031 37.865 0.711428 40.3946 2.66982Z" fill="#915D52"/>
</svg>
