<svg width="60" height="33" viewBox="0 0 60 33" fill="none" xmlns="http://www.w3.org/2000/svg">
<path d="M48.022 4.38178C54.0483 5.34327 53.1716 8.88762 53.1716 8.88762C52.3842 13.3584 41.6846 12.4062 41.8532 12.3743C30.8674 14.4771 29.158 9.96046 29.6765 7.4393C31.0585 0.720199 43.3015 2.66523 48.022 4.38178Z" fill="#D9D9D9"/>
<path d="M30.9647 25.2916C33.7805 21.3398 40.2475 16.5234 43.1291 14.6092C47.081 10.8549 52.6795 14.4857 54.9848 16.7704C61.1047 20.7015 59.3521 27.239 59.3689 27.0823C58.5661 35.0478 51.3075 31.5835 51.5886 31.7134C49.0693 30.3797 40.2475 31.1577 36.1516 31.7134C29.4334 31.911 29.8944 27.5146 30.9647 25.2916Z" fill="#D9D9D9"/>
<path d="M13.9791 28.7624C2.52153 29.7627 0.149734 24.2537 0.39603 21.3741C0.0828839 14.037 7.29876 14.3887 11.0833 15.5209C17.4173 15.9084 20.4581 12.5082 20.7991 12.5082C30.7472 7.97784 34.439 15.8803 34.0412 19.1008C33.7801 21.2146 28.6231 22.1319 27.5622 23.6475C24.0613 27.7849 17.0481 28.7814 13.9791 28.7624Z" fill="#D9D9D9"/>
<path d="M27.5622 4.41626C27.0905 7.68439 23.6 8.20699 21.9138 8.05978C19.006 8.05978 16.2626 10.2176 16.0901 10.2176C4.92103 13.9007 6.01482 7.56292 6.01482 7.56292C8.87999 0.110791 17.3753 0.338446 21.9138 1.71125C27.235 1.42648 27.733 3.5836 27.5622 4.41626Z" fill="#D9D9D9"/>
</svg>
