<svg width="74" height="38" viewBox="0 0 74 38" fill="none" xmlns="http://www.w3.org/2000/svg">
<ellipse cx="9.46103" cy="7.82717" rx="6.38283" ry="5.49339" transform="rotate(17.8754 9.46103 7.82717)" fill="#D9D9D9"/>
<ellipse cx="28.3829" cy="11.261" rx="7.81361" ry="6.5744" transform="rotate(-12.8015 28.3829 11.261)" fill="#D9D9D9"/>
<path d="M17.7957 24.5468C18.0501 21.522 20.7084 19.2762 23.7333 19.5306L26.7595 19.7851C30.526 20.1019 33.3224 23.412 33.0057 27.1784L32.8927 28.5213C32.6383 31.5461 29.98 33.7919 26.9552 33.5375L22.5861 33.17C19.5612 32.9156 17.3154 30.2573 17.5698 27.2325L17.7957 24.5468Z" fill="#D9D9D9"/>
<path d="M35.8648 24.7456C34.6025 22.3228 35.5433 19.3354 37.9661 18.0731L44.8918 14.4647C47.3802 13.1682 50.4485 14.1345 51.7449 16.6228C54.1022 21.1472 52.3454 26.7258 47.821 29.083L45.5566 30.2628C42.5954 31.8056 38.9441 30.6558 37.4013 27.6946L35.8648 24.7456Z" fill="#D9D9D9"/>
<path d="M58.8764 11.3787C60.5972 9.66521 63.3812 9.67117 65.0947 11.392L70.4621 16.7825C71.533 17.858 71.5293 19.598 70.4538 20.6689L69.0805 22.0363C66.9295 24.1781 63.4495 24.1707 61.3077 22.0197L56.8936 17.5866C55.7245 16.4125 55.7286 14.513 56.9026 13.344L58.8764 11.3787Z" fill="#D9D9D9"/>
</svg>
