<svg width="71" height="34" viewBox="0 0 71 34" fill="none" xmlns="http://www.w3.org/2000/svg">
<path d="M33.2996 17.474C35.4707 14.5069 39.3908 16.4789 41.0794 17.8359L45.5121 18.2429C48.4585 18.6005 47.5599 20.6973 46.7786 20.8663C44.0195 20.9719 37.678 21.201 34.3852 21.2734C31.0923 21.3458 32.2895 18.7706 33.2996 17.474Z" fill="#D9D9D9"/>
<path d="M53.2656 22.9372C56.8224 23.0321 63.9699 28.1335 63.9699 28.1335C64.5564 29.3481 64.1642 29.3263 63.5803 30.4066C62.6318 32.1613 59.1145 31.9676 57.4744 31.6515C55.5775 34.0819 48.9368 33.0219 49.2345 33.0742C39.9868 31.5092 40.5203 26.0594 41.943 23.5301C42.9099 21.8114 49.7087 22.8424 53.2656 22.9372Z" fill="#D9D9D9"/>
<path d="M23.5432 6.3274C24.0802 6.3274 36.994 4.04571 44.5186 4.25175C59.1501 -0.957277 61.2352 0.320277 61.2352 0.320277C66.6272 3.78574 64.7799 3.48016 66.3396 4.8778C69.7426 6.87096 68.2437 8.46306 67.0688 9.00996C65.6104 9.33405 62.0252 9.78778 59.3514 9.00996C56.6777 8.23214 50.7795 11.9412 48.1646 13.893C43.5516 16.8415 39.6149 14.6997 39.4231 14.5935C39.4243 14.5944 39.4255 14.5952 39.4266 14.5961C39.4134 14.588 39.4124 14.5876 39.4231 14.5935C38.2781 13.7635 34.9398 14.4966 34.2542 15.4498C30.6385 18.7843 27.2093 18.2592 25.9466 17.5798C21.6641 16.1815 15.4953 16.633 12.9462 17.0336C9.77808 18.3446 3.31065 20.1799 2.78626 17.0336C2.26188 13.8873 8.53992 13.0279 11.7445 12.9915C13.5653 11.9718 17.711 6.3274 23.5432 6.3274Z" fill="#D9D9D9"/>
<path d="M8.2103 21.558C12.5495 18.7154 17.7971 18.4529 19.8784 18.677C25.1026 18.677 31.3065 22.1662 33.7553 23.9108C34.9878 23.8788 37.6063 24.535 38.2209 27.4161C38.9892 31.0173 33.9474 32.6979 33.1791 32.2658C32.5645 31.92 19.4344 31.9616 12.9462 32.0257C4.98043 32.4482 1.38007 28.2964 0.57561 26.1676C0.421956 21.2507 5.60138 21.0458 8.2103 21.558Z" fill="#D9D9D9"/>
<path d="M60.7979 18.404C62.233 18.4641 66.3574 19.881 68.2402 20.5819C68.6163 20.8336 69.1411 20.4504 68.2314 16.9033C67.0944 12.4694 63.0929 13.7867 63.1842 13.7623C60.5347 14.4922 56.9732 13.4126 57.1341 13.4717C52.6935 11.8086 52.2015 14.236 52.5105 15.6575C53.874 19.4074 59.0041 18.3288 60.7979 18.404Z" fill="#D9D9D9"/>
</svg>
