<svg width="69" height="28" viewBox="0 0 69 28" fill="none" xmlns="http://www.w3.org/2000/svg">
<path d="M25.8642 2.99413C31.4586 0.492612 36.8138 1.79597 38.5323 3.65332C48.783 1.13359 53.6346 5.17299 54.0853 5.1843C59.4387 4.02627 62.756 7.27565 63.7455 9.0451C65.25 10.0305 68.2263 13.3058 68.0954 18.5235C67.9645 23.7412 63.245 25.3565 60.9015 25.512C57.2049 28.451 52.8481 26.4109 53.0987 26.5354C49.1684 24.5432 46.7077 25.1996 45.9686 25.7768C42.6897 27.0858 37.0072 26.1317 34.5758 25.4911C30.7079 27.1717 27.2034 26.0468 25.9346 25.2743C22.9552 23.8857 20.0046 24.1518 18.9018 24.4584C12.2766 26.1856 5.01547 23.9685 2.13132 19.0788C-0.697497 13.2375 1.68923 8.24828 3.2362 6.48385C7.4961 1.62509 11.53 2.33403 14.3758 2.70595C21.7354 0.456169 25.1012 1.96066 25.8642 2.99413Z" fill="#D9D9D9"/>
</svg>
